<mxfile host="app.diagrams.net" modified="2024-04-15T09:41:52.979Z" agent="Mozilla/5.0 (Windows NT 10.0; Win64; x64) AppleWebKit/537.36 (KHTML, like Gecko) Chrome/123.0.0.0 Safari/537.36" version="24.2.5" etag="sPyW_teVBnpovOgYPpmR" type="device">
  <diagram id="zcjibLL_gPydBBILLsIe" name="페이지-1">
    <mxGraphModel dx="1434" dy="1941" grid="1" gridSize="10" guides="1" tooltips="1" connect="1" arrows="1" fold="1" page="1" pageScale="1" pageWidth="827" pageHeight="1169" math="0" shadow="0">
      <root>
        <mxCell id="0" />
        <mxCell id="1" parent="0" />
        <mxCell id="GFys1qVPGQ3j7j_DiY-b-15" style="edgeStyle=orthogonalEdgeStyle;rounded=0;orthogonalLoop=1;jettySize=auto;html=1;exitX=0.5;exitY=1;exitDx=0;exitDy=0;entryX=0.5;entryY=0;entryDx=0;entryDy=0;strokeWidth=2;" edge="1" parent="1" source="GFys1qVPGQ3j7j_DiY-b-1" target="GFys1qVPGQ3j7j_DiY-b-13">
          <mxGeometry relative="1" as="geometry" />
        </mxCell>
        <mxCell id="GFys1qVPGQ3j7j_DiY-b-16" style="edgeStyle=orthogonalEdgeStyle;rounded=0;orthogonalLoop=1;jettySize=auto;html=1;exitX=1;exitY=0.5;exitDx=0;exitDy=0;strokeColor=#990000;strokeWidth=2;" edge="1" parent="1" source="GFys1qVPGQ3j7j_DiY-b-1" target="GFys1qVPGQ3j7j_DiY-b-14">
          <mxGeometry relative="1" as="geometry" />
        </mxCell>
        <mxCell id="GFys1qVPGQ3j7j_DiY-b-1" value="공&amp;gt;=방 비교" style="rhombus;whiteSpace=wrap;html=1;strokeWidth=2;" vertex="1" parent="1">
          <mxGeometry x="360" y="60" width="120" height="40" as="geometry" />
        </mxCell>
        <mxCell id="GFys1qVPGQ3j7j_DiY-b-28" style="edgeStyle=orthogonalEdgeStyle;rounded=0;orthogonalLoop=1;jettySize=auto;html=1;exitX=0.5;exitY=1;exitDx=0;exitDy=0;entryX=0.5;entryY=0;entryDx=0;entryDy=0;strokeWidth=2;" edge="1" parent="1" source="GFys1qVPGQ3j7j_DiY-b-2" target="GFys1qVPGQ3j7j_DiY-b-27">
          <mxGeometry relative="1" as="geometry" />
        </mxCell>
        <mxCell id="GFys1qVPGQ3j7j_DiY-b-2" value="영웅 데미지&amp;nbsp;&lt;div&gt;시작&lt;/div&gt;" style="rounded=1;whiteSpace=wrap;html=1;arcSize=50;strokeWidth=2;" vertex="1" parent="1">
          <mxGeometry x="80" width="120" height="40" as="geometry" />
        </mxCell>
        <mxCell id="GFys1qVPGQ3j7j_DiY-b-8" style="edgeStyle=orthogonalEdgeStyle;rounded=0;orthogonalLoop=1;jettySize=auto;html=1;exitX=0.5;exitY=1;exitDx=0;exitDy=0;strokeWidth=2;" edge="1" parent="1" source="GFys1qVPGQ3j7j_DiY-b-3" target="GFys1qVPGQ3j7j_DiY-b-4">
          <mxGeometry relative="1" as="geometry" />
        </mxCell>
        <mxCell id="GFys1qVPGQ3j7j_DiY-b-3" value="영웅 피해량 배율&amp;nbsp;&lt;div&gt;확인&lt;/div&gt;" style="rounded=1;whiteSpace=wrap;html=1;arcSize=0;strokeWidth=2;" vertex="1" parent="1">
          <mxGeometry x="80" y="180" width="120" height="40" as="geometry" />
        </mxCell>
        <mxCell id="GFys1qVPGQ3j7j_DiY-b-9" style="edgeStyle=orthogonalEdgeStyle;rounded=0;orthogonalLoop=1;jettySize=auto;html=1;exitX=0.5;exitY=1;exitDx=0;exitDy=0;strokeWidth=2;" edge="1" parent="1" source="GFys1qVPGQ3j7j_DiY-b-4" target="GFys1qVPGQ3j7j_DiY-b-26">
          <mxGeometry relative="1" as="geometry">
            <mxPoint x="140" y="300" as="targetPoint" />
          </mxGeometry>
        </mxCell>
        <mxCell id="GFys1qVPGQ3j7j_DiY-b-4" value="대상 유닛의&amp;nbsp;&lt;div&gt;최대 체력 확인&lt;/div&gt;" style="rounded=1;whiteSpace=wrap;html=1;arcSize=0;strokeWidth=2;" vertex="1" parent="1">
          <mxGeometry x="80" y="240" width="120" height="40" as="geometry" />
        </mxCell>
        <mxCell id="GFys1qVPGQ3j7j_DiY-b-17" style="edgeStyle=orthogonalEdgeStyle;rounded=0;orthogonalLoop=1;jettySize=auto;html=1;exitX=0.5;exitY=1;exitDx=0;exitDy=0;strokeWidth=2;" edge="1" parent="1" source="GFys1qVPGQ3j7j_DiY-b-10" target="GFys1qVPGQ3j7j_DiY-b-1">
          <mxGeometry relative="1" as="geometry" />
        </mxCell>
        <mxCell id="GFys1qVPGQ3j7j_DiY-b-10" value="유닛 데미지&lt;div&gt;시작&lt;/div&gt;" style="rounded=1;whiteSpace=wrap;html=1;arcSize=50;strokeWidth=2;" vertex="1" parent="1">
          <mxGeometry x="360" width="120" height="40" as="geometry" />
        </mxCell>
        <mxCell id="GFys1qVPGQ3j7j_DiY-b-19" style="edgeStyle=orthogonalEdgeStyle;rounded=0;orthogonalLoop=1;jettySize=auto;html=1;exitX=0.5;exitY=1;exitDx=0;exitDy=0;strokeWidth=2;" edge="1" parent="1" source="GFys1qVPGQ3j7j_DiY-b-13" target="GFys1qVPGQ3j7j_DiY-b-18">
          <mxGeometry relative="1" as="geometry" />
        </mxCell>
        <mxCell id="GFys1qVPGQ3j7j_DiY-b-13" value="공&amp;gt;=방&lt;div&gt;계산식&lt;/div&gt;" style="rounded=1;whiteSpace=wrap;html=1;arcSize=0;strokeWidth=2;" vertex="1" parent="1">
          <mxGeometry x="360" y="120" width="120" height="40" as="geometry" />
        </mxCell>
        <mxCell id="GFys1qVPGQ3j7j_DiY-b-20" style="edgeStyle=orthogonalEdgeStyle;rounded=0;orthogonalLoop=1;jettySize=auto;html=1;exitX=0.5;exitY=1;exitDx=0;exitDy=0;entryX=1;entryY=0.5;entryDx=0;entryDy=0;strokeWidth=2;" edge="1" parent="1" source="GFys1qVPGQ3j7j_DiY-b-14" target="GFys1qVPGQ3j7j_DiY-b-18">
          <mxGeometry relative="1" as="geometry" />
        </mxCell>
        <mxCell id="GFys1qVPGQ3j7j_DiY-b-14" value="공&amp;lt;방&lt;div&gt;계산식&lt;/div&gt;" style="rounded=1;whiteSpace=wrap;html=1;arcSize=0;strokeWidth=2;" vertex="1" parent="1">
          <mxGeometry x="520" y="120" width="120" height="40" as="geometry" />
        </mxCell>
        <mxCell id="GFys1qVPGQ3j7j_DiY-b-24" style="edgeStyle=orthogonalEdgeStyle;rounded=0;orthogonalLoop=1;jettySize=auto;html=1;exitX=0.5;exitY=1;exitDx=0;exitDy=0;entryX=0.5;entryY=0;entryDx=0;entryDy=0;strokeWidth=2;" edge="1" parent="1" source="GFys1qVPGQ3j7j_DiY-b-18" target="GFys1qVPGQ3j7j_DiY-b-23">
          <mxGeometry relative="1" as="geometry" />
        </mxCell>
        <mxCell id="GFys1qVPGQ3j7j_DiY-b-18" value="데미지 확인" style="rounded=1;whiteSpace=wrap;html=1;arcSize=0;strokeWidth=2;" vertex="1" parent="1">
          <mxGeometry x="360" y="180" width="120" height="40" as="geometry" />
        </mxCell>
        <mxCell id="GFys1qVPGQ3j7j_DiY-b-36" style="edgeStyle=orthogonalEdgeStyle;rounded=0;orthogonalLoop=1;jettySize=auto;html=1;exitX=0.5;exitY=1;exitDx=0;exitDy=0;strokeWidth=2;entryX=0.5;entryY=0;entryDx=0;entryDy=0;" edge="1" parent="1" source="GFys1qVPGQ3j7j_DiY-b-21" target="GFys1qVPGQ3j7j_DiY-b-42">
          <mxGeometry relative="1" as="geometry">
            <mxPoint x="420" y="360" as="targetPoint" />
          </mxGeometry>
        </mxCell>
        <mxCell id="GFys1qVPGQ3j7j_DiY-b-21" value="유닛 데미지 계산" style="rounded=1;whiteSpace=wrap;html=1;arcSize=0;strokeWidth=2;" vertex="1" parent="1">
          <mxGeometry x="360" y="300" width="120" height="40" as="geometry" />
        </mxCell>
        <mxCell id="GFys1qVPGQ3j7j_DiY-b-25" style="edgeStyle=orthogonalEdgeStyle;rounded=0;orthogonalLoop=1;jettySize=auto;html=1;exitX=0.5;exitY=1;exitDx=0;exitDy=0;strokeWidth=2;" edge="1" parent="1" source="GFys1qVPGQ3j7j_DiY-b-23" target="GFys1qVPGQ3j7j_DiY-b-21">
          <mxGeometry relative="1" as="geometry" />
        </mxCell>
        <mxCell id="GFys1qVPGQ3j7j_DiY-b-23" value="유닛 숫자 확인" style="rounded=1;whiteSpace=wrap;html=1;arcSize=0;strokeWidth=2;" vertex="1" parent="1">
          <mxGeometry x="360" y="240" width="120" height="40" as="geometry" />
        </mxCell>
        <mxCell id="GFys1qVPGQ3j7j_DiY-b-33" style="edgeStyle=orthogonalEdgeStyle;rounded=0;orthogonalLoop=1;jettySize=auto;html=1;exitX=0.5;exitY=1;exitDx=0;exitDy=0;strokeWidth=2;" edge="1" parent="1" source="GFys1qVPGQ3j7j_DiY-b-26" target="GFys1qVPGQ3j7j_DiY-b-41">
          <mxGeometry relative="1" as="geometry">
            <mxPoint x="140" y="360" as="targetPoint" />
          </mxGeometry>
        </mxCell>
        <mxCell id="GFys1qVPGQ3j7j_DiY-b-26" value="영웅 데미지 계산" style="rounded=1;whiteSpace=wrap;html=1;arcSize=0;strokeWidth=2;" vertex="1" parent="1">
          <mxGeometry x="80" y="300" width="120" height="40" as="geometry" />
        </mxCell>
        <mxCell id="GFys1qVPGQ3j7j_DiY-b-30" style="edgeStyle=orthogonalEdgeStyle;rounded=0;orthogonalLoop=1;jettySize=auto;html=1;exitX=0.5;exitY=1;exitDx=0;exitDy=0;entryX=0.5;entryY=0;entryDx=0;entryDy=0;strokeWidth=2;" edge="1" parent="1" source="GFys1qVPGQ3j7j_DiY-b-27" target="GFys1qVPGQ3j7j_DiY-b-29">
          <mxGeometry relative="1" as="geometry" />
        </mxCell>
        <mxCell id="GFys1qVPGQ3j7j_DiY-b-27" value="영웅 레벨 확인" style="rounded=1;whiteSpace=wrap;html=1;arcSize=0;strokeWidth=2;" vertex="1" parent="1">
          <mxGeometry x="80" y="60" width="120" height="40" as="geometry" />
        </mxCell>
        <mxCell id="GFys1qVPGQ3j7j_DiY-b-31" style="edgeStyle=orthogonalEdgeStyle;rounded=0;orthogonalLoop=1;jettySize=auto;html=1;exitX=0.5;exitY=1;exitDx=0;exitDy=0;entryX=0.5;entryY=0;entryDx=0;entryDy=0;strokeWidth=2;" edge="1" parent="1" source="GFys1qVPGQ3j7j_DiY-b-29" target="GFys1qVPGQ3j7j_DiY-b-3">
          <mxGeometry relative="1" as="geometry" />
        </mxCell>
        <mxCell id="GFys1qVPGQ3j7j_DiY-b-29" value="유닛 레벨 확인" style="rounded=1;whiteSpace=wrap;html=1;arcSize=0;strokeWidth=2;" vertex="1" parent="1">
          <mxGeometry x="80" y="120" width="120" height="40" as="geometry" />
        </mxCell>
        <mxCell id="GFys1qVPGQ3j7j_DiY-b-45" style="edgeStyle=orthogonalEdgeStyle;rounded=0;orthogonalLoop=1;jettySize=auto;html=1;exitX=0.5;exitY=1;exitDx=0;exitDy=0;entryX=0.5;entryY=0;entryDx=0;entryDy=0;strokeWidth=2;" edge="1" parent="1" source="GFys1qVPGQ3j7j_DiY-b-41" target="GFys1qVPGQ3j7j_DiY-b-43">
          <mxGeometry relative="1" as="geometry" />
        </mxCell>
        <mxCell id="GFys1qVPGQ3j7j_DiY-b-41" value="처치 유닛 계산" style="rounded=1;whiteSpace=wrap;html=1;arcSize=0;strokeWidth=2;" vertex="1" parent="1">
          <mxGeometry x="80" y="360" width="120" height="40" as="geometry" />
        </mxCell>
        <mxCell id="GFys1qVPGQ3j7j_DiY-b-46" style="edgeStyle=orthogonalEdgeStyle;rounded=0;orthogonalLoop=1;jettySize=auto;html=1;exitX=0.5;exitY=1;exitDx=0;exitDy=0;entryX=0.5;entryY=0;entryDx=0;entryDy=0;strokeWidth=2;" edge="1" parent="1" source="GFys1qVPGQ3j7j_DiY-b-42" target="GFys1qVPGQ3j7j_DiY-b-44">
          <mxGeometry relative="1" as="geometry" />
        </mxCell>
        <mxCell id="GFys1qVPGQ3j7j_DiY-b-42" value="처치 유닛 계산" style="rounded=1;whiteSpace=wrap;html=1;arcSize=0;strokeWidth=2;" vertex="1" parent="1">
          <mxGeometry x="360" y="360" width="120" height="40" as="geometry" />
        </mxCell>
        <mxCell id="GFys1qVPGQ3j7j_DiY-b-49" style="edgeStyle=orthogonalEdgeStyle;rounded=0;orthogonalLoop=1;jettySize=auto;html=1;entryX=0.5;entryY=0;entryDx=0;entryDy=0;strokeWidth=2;" edge="1" parent="1" source="GFys1qVPGQ3j7j_DiY-b-43" target="GFys1qVPGQ3j7j_DiY-b-47">
          <mxGeometry relative="1" as="geometry" />
        </mxCell>
        <mxCell id="GFys1qVPGQ3j7j_DiY-b-43" value="데미지&amp;amp;처치 수 표기" style="shape=document;whiteSpace=wrap;html=1;boundedLbl=1;strokeWidth=2;" vertex="1" parent="1">
          <mxGeometry x="80" y="420" width="120" height="40" as="geometry" />
        </mxCell>
        <mxCell id="GFys1qVPGQ3j7j_DiY-b-50" style="edgeStyle=orthogonalEdgeStyle;rounded=0;orthogonalLoop=1;jettySize=auto;html=1;entryX=0.5;entryY=0;entryDx=0;entryDy=0;strokeWidth=2;" edge="1" parent="1" source="GFys1qVPGQ3j7j_DiY-b-44" target="GFys1qVPGQ3j7j_DiY-b-48">
          <mxGeometry relative="1" as="geometry" />
        </mxCell>
        <mxCell id="GFys1qVPGQ3j7j_DiY-b-44" value="데미지&amp;amp;처치 수 표기" style="shape=document;whiteSpace=wrap;html=1;boundedLbl=1;strokeWidth=2;" vertex="1" parent="1">
          <mxGeometry x="360" y="420" width="120" height="40" as="geometry" />
        </mxCell>
        <mxCell id="GFys1qVPGQ3j7j_DiY-b-47" value="종료" style="rounded=1;whiteSpace=wrap;html=1;arcSize=50;strokeWidth=2;" vertex="1" parent="1">
          <mxGeometry x="80" y="480" width="120" height="40" as="geometry" />
        </mxCell>
        <mxCell id="GFys1qVPGQ3j7j_DiY-b-48" value="종료" style="rounded=1;whiteSpace=wrap;html=1;arcSize=50;strokeWidth=2;" vertex="1" parent="1">
          <mxGeometry x="360" y="480" width="120" height="40" as="geometry" />
        </mxCell>
      </root>
    </mxGraphModel>
  </diagram>
</mxfile>
